<svg width="723" height="738" viewBox="0 0 723 738" fill="none" xmlns="http://www.w3.org/2000/svg">
<g id="exaggerate">
<rect id="Rectangle 6" x="46" y="58" width="631" height="621" fill="white"/>
<g id="lines">
<path id="Vector 6" d="M144 153L69.5 104.5" stroke="black" stroke-width="20" stroke-linecap="round"/>
<path id="Vector 7" d="M171.483 120.017L144 85" stroke="black" stroke-width="20" stroke-linecap="round"/>
<path id="Vector 10" d="M597.428 549.573L658.427 589.674" stroke="black" stroke-width="20" stroke-linecap="round"/>
<path id="Vector 11" d="M582.396 585.505L607.686 617.08" stroke="black" stroke-width="20" stroke-linecap="round"/>
<path id="Vector 8" d="M589.169 153L654.169 105" stroke="black" stroke-width="20" stroke-linecap="round"/>
<path id="Vector 9" d="M565.8 120.017L589.614 85" stroke="black" stroke-width="20" stroke-linecap="round"/>
</g>
<g id="speech-bbl">
<path id="Vector 5" d="M269.5 578L165 657L200.5 578H165L224.5 488C206.5 454.8 157.333 474.167 135 488C171 416 120 362 90 344C162 327.6 170 241.167 165 200C232.6 218 285.5 182.5 303.5 162.5C359.1 208.9 417.667 181.833 440 162.5C486.4 207.7 554.333 206.333 582.5 200C564.5 290 622.333 333.5 653.5 344C584.7 375.6 592.5 453.167 605 488C546.6 454.8 510.667 501.833 500 529.5C443.2 480.3 389 529 369 559.5C321 462.3 259 519 234 559.5L269.5 578Z" fill="white" stroke="#73A684" stroke-width="20" stroke-linecap="round" stroke-linejoin="round"/>
<path id="%#$" d="M291.019 294L226.059 414.48H240.299L305.259 294H291.019ZM224.939 326.64C224.939 320.88 225.313 316.507 226.059 313.52C226.806 310.427 228.779 308.88 231.979 308.88C235.179 308.88 237.153 310.427 237.899 313.52C238.646 316.507 239.019 320.88 239.019 326.64C239.019 333.04 238.646 337.84 237.899 341.04C237.153 344.133 235.179 345.68 231.979 345.68C228.779 345.68 226.806 344.133 226.059 341.04C225.313 337.84 224.939 333.04 224.939 326.64ZM207.979 327.28C207.979 332.4 208.299 336.88 208.939 340.72C209.579 344.56 210.753 347.76 212.459 350.32C214.273 352.88 216.726 354.8 219.819 356.08C223.019 357.253 227.073 357.84 231.979 357.84C236.993 357.84 241.046 357.253 244.139 356.08C247.233 354.8 249.633 352.88 251.339 350.32C253.153 347.76 254.379 344.56 255.019 340.72C255.659 336.88 255.979 332.4 255.979 327.28C255.979 322.16 255.659 317.68 255.019 313.84C254.379 310 253.153 306.8 251.339 304.24C249.633 301.68 247.233 299.813 244.139 298.64C241.046 297.36 236.993 296.72 231.979 296.72C227.073 296.72 223.019 297.36 219.819 298.64C216.726 299.813 214.273 301.68 212.459 304.24C210.753 306.8 209.579 310 208.939 313.84C208.299 317.68 207.979 322.16 207.979 327.28ZM275.819 381.68C275.819 386.907 276.139 391.44 276.779 395.28C277.419 399.013 278.593 402.16 280.299 404.72C282.113 407.173 284.566 408.933 287.659 410C290.859 411.173 294.913 411.76 299.819 411.76C304.833 411.76 308.886 411.173 311.979 410C315.073 408.933 317.473 407.173 319.179 404.72C320.993 402.16 322.219 399.013 322.859 395.28C323.499 391.44 323.819 386.907 323.819 381.68C323.819 376.56 323.499 372.08 322.859 368.24C322.219 364.4 320.993 361.2 319.179 358.64C317.473 356.08 315.073 354.213 311.979 353.04C308.886 351.76 304.833 351.12 299.819 351.12C294.913 351.12 290.859 351.76 287.659 353.04C284.566 354.213 282.113 356.08 280.299 358.64C278.593 361.2 277.419 364.4 276.779 368.24C276.139 372.08 275.819 376.56 275.819 381.68ZM292.779 381.04C292.779 375.28 293.153 370.907 293.899 367.92C294.646 364.827 296.619 363.28 299.819 363.28C303.019 363.28 304.993 364.827 305.739 367.92C306.486 370.907 306.859 375.28 306.859 381.04C306.859 387.44 306.486 392.24 305.739 395.44C304.993 398.533 303.019 400.08 299.819 400.08C296.619 400.08 294.646 398.533 293.899 395.44C293.153 392.24 292.779 387.44 292.779 381.04ZM384.831 364.24L387.231 344.72H402.911L400.351 364.24H384.831ZM355.391 364.24V382.16H367.231L363.711 410H379.231L382.591 382.16H398.271L394.751 410H410.271L413.791 382.16H427.551V364.24H415.871L418.431 344.72H432.191V326.8H420.511L424.031 298.96H408.511L404.991 326.8H389.471L392.831 298.96H377.471L373.951 326.8H360.191V344.72H371.871L369.311 364.24H355.391ZM492.266 411.76V425.68H502.506V411.76C513.066 411.013 521.066 408.08 526.506 402.96C532.052 397.84 534.826 389.52 534.826 378C534.826 373.52 534.346 369.733 533.386 366.64C532.426 363.547 531.092 360.933 529.386 358.8C527.679 356.56 525.599 354.693 523.146 353.2C520.799 351.707 518.132 350.32 515.146 349.04L502.506 343.92V313.68C505.279 314.533 507.199 316.347 508.266 319.12C509.332 321.787 509.919 325.147 510.026 329.2H532.106V326.96C532.106 323.44 531.679 319.973 530.826 316.56C529.972 313.147 528.426 310.053 526.186 307.28C523.946 304.507 520.906 302.213 517.066 300.4C513.332 298.48 508.479 297.253 502.506 296.72V285.68H492.266V296.72C482.666 297.787 475.252 301.04 470.026 306.48C464.906 311.813 462.346 319.44 462.346 329.36C462.346 336.72 464.052 343.013 467.466 348.24C470.879 353.36 476.479 357.307 484.266 360.08L492.266 362.96V395.28C490.132 394.747 488.426 393.893 487.146 392.72C485.972 391.44 485.066 389.947 484.426 388.24C483.786 386.533 483.359 384.667 483.146 382.64C483.039 380.507 482.986 378.32 482.986 376.08H460.906V379.44C460.906 383.6 461.279 387.547 462.026 391.28C462.879 395.013 464.426 398.373 466.666 401.36C468.906 404.24 472.052 406.587 476.106 408.4C480.266 410.107 485.652 411.227 492.266 411.76ZM492.266 313.68V339.28C487.039 336.293 484.426 331.813 484.426 325.84C484.426 319.227 487.039 315.173 492.266 313.68ZM502.506 395.28V366.96C505.599 368.56 507.892 370.533 509.386 372.88C510.986 375.227 511.786 378.427 511.786 382.48C511.786 385.467 511.039 388.187 509.546 390.64C508.159 392.987 505.812 394.533 502.506 395.28Z" fill="#E37826"/>
</g>
</g>
</svg>
