<svg width="723" height="738" viewBox="0 0 723 738" fill="none" xmlns="http://www.w3.org/2000/svg">
<g id="listen">
<rect id="Rectangle 5" x="61" y="355" width="210" height="231" fill="white"/>
<g id="ear">
<path id="Vector 3" d="M483.408 114.927C622.293 101.723 670.894 232.874 675.312 301.644C708 359 695.5 461 629.785 539.65V587.788C629.785 607.67 613.667 623.788 593.785 623.788H482.526C462.644 623.788 446.526 607.67 446.526 587.788V530.43L335.303 375.408C278.826 273.406 330.116 129.5 483.408 114.927Z" fill="white"/>
<path id="Vector 2" d="M675 301.644C670.582 232.874 621.982 101.723 483.097 114.927C329.804 129.5 278.515 273.406 334.991 375.408L446.214 530.43V587.788C446.214 607.67 462.332 623.788 482.214 623.788H593.473C613.356 623.788 629.473 607.67 629.473 587.788V539.65" stroke="#E37826" stroke-width="20" stroke-linecap="round"/>
<g id="Group 1">
<path id="Vector 3_2" d="M657.711 468.767L573.888 430.995C567.788 428.246 563.044 423.165 560.718 416.891L544.192 372.309C541.478 364.988 544.1 356.759 550.55 352.358L588.557 326.424" stroke="#73A684" stroke-width="20" stroke-linecap="round"/>
<path id="Vector 4" d="M609.88 379.442C602.772 359.849 588.903 312.593 590.286 280.321C582.026 242.862 543.722 175.322 456.587 204.827C369.453 234.333 394.54 319.316 417.976 358.12L495.199 460.122" stroke="#73A684" stroke-width="20" stroke-linecap="round"/>
</g>
</g>
<g id="sound-waves">
<path id="Ellipse 8" d="M260 474.842C243.322 480.433 225.727 467.738 220.702 446.486C215.676 425.235 225.122 403.475 241.8 397.884" stroke="black" stroke-width="20" stroke-linecap="round"/>
<path id="Ellipse 9" d="M214.247 525.282C189.659 533.525 162.402 509.231 153.365 471.02C144.329 432.81 156.935 395.152 181.523 386.909" stroke="black" stroke-width="20" stroke-linecap="round"/>
<path id="Ellipse 10" d="M175.943 572.752C131.766 587.562 85.2183 554.177 71.9765 498.184C58.7346 442.191 83.8127 384.794 127.99 369.985" stroke="black" stroke-width="20" stroke-linecap="round"/>
</g>
</g>
</svg>
